<?xml version="1.0" encoding="utf-8"?>
<!-- Generator: Adobe Illustrator 19.0.0, SVG Export Plug-In . SVG Version: 6.00 Build 0)  -->
<svg version="1.1" id="Layer_1" xmlns="http://www.w3.org/2000/svg" xmlns:xlink="http://www.w3.org/1999/xlink" x="0px" y="0px"
	 viewBox="0 0 227 60" style="enable-background:new 0 0 227 60;" xml:space="preserve">
<style type="text/css">
	.st0{fill:none;}
	.st1{fill:#FFFFFF;}
</style>
<g id="XMLID_2_">
	<polygon id="XMLID_3_" class="st0" points="39.9,23.9 36,19.7 25.4,30.2 14.8,19.7 10.8,24 25.4,38.4 	"/>
	<path id="XMLID_46_" class="st0" d="M75.1,6.9h-4.7c-0.1,1.7-0.2,3.2-0.4,4.5c-0.2,1.3-0.3,2.5-0.6,3.5s-0.5,1.9-0.7,2.6
		c-0.3,0.7-0.5,1.3-0.9,1.8h7.3V6.9z"/>
	<path id="XMLID_47_" class="st0" d="M87.5,17.5c0.5,0.5,1.1,0.9,1.7,1.2c0.7,0.3,1.4,0.4,2.3,0.4c0.8,0,1.6-0.1,2.3-0.4
		c0.7-0.3,1.3-0.7,1.7-1.2c0.5-0.5,0.8-1.2,1.1-1.9C96.9,14.9,97,14,97,13c0-1-0.1-1.8-0.4-2.6c-0.3-0.8-0.6-1.4-1.1-1.9
		c-0.5-0.5-1-0.9-1.7-1.2c-0.7-0.3-1.4-0.4-2.3-0.4c-0.8,0-1.6,0.1-2.3,0.4C88.6,7.6,88,8,87.5,8.6c-0.5,0.5-0.8,1.2-1.1,1.9
		c-0.3,0.8-0.4,1.6-0.4,2.6c0,1,0.1,1.8,0.4,2.6C86.7,16.4,87.1,17,87.5,17.5z"/>
	<path id="XMLID_48_" class="st0" d="M197.1,19c0.4-0.1,0.7-0.3,1-0.6s0.4-0.5,0.5-0.8c0.1-0.3,0.2-0.6,0.2-1c0-0.4-0.1-0.7-0.2-1.1
		c-0.1-0.3-0.3-0.6-0.5-0.8c-0.2-0.2-0.6-0.4-1-0.5c-0.4-0.1-0.9-0.2-1.5-0.2h-2.8v5.1h2.8C196.2,19.2,196.7,19.1,197.1,19z"/>
	<path id="XMLID_49_" class="st0" d="M120.1,38.5c-0.1-0.4-0.2-0.7-0.3-1.1c-0.1,0.4-0.2,0.8-0.3,1.1c-0.1,0.4-0.2,0.7-0.3,0.9
		l-2.1,5.7h5.5l-2.1-5.8C120.3,39.1,120.2,38.8,120.1,38.5z"/>
	<path id="XMLID_50_" class="st0" d="M88.3,38.5c-0.1-0.4-0.2-0.7-0.3-1.1c-0.1,0.4-0.2,0.8-0.3,1.1c-0.1,0.4-0.2,0.7-0.3,0.9
		l-2.1,5.7h5.5l-2.1-5.8C88.5,39.1,88.4,38.8,88.3,38.5z"/>
	<path id="XMLID_51_" class="st0" d="M183.6,38.5c-0.1-0.4-0.2-0.7-0.3-1.1c-0.1,0.4-0.2,0.8-0.3,1.1c-0.1,0.4-0.2,0.7-0.3,0.9
		l-2.1,5.7h5.5l-2.1-5.8C183.9,39.1,183.7,38.8,183.6,38.5z"/>
	<path id="XMLID_54_" class="st1" d="M0,54.3h19.5l5.7,5.7l5.9-5.7h19.2V3.7H0V54.3z M14.8,19.7l10.6,10.4L36,19.7l4,4.2L25.4,38.4
		L10.8,24L14.8,19.7z"/>
	<path id="XMLID_57_" class="st1" d="M65.1,25.6c0.2-0.2,0.3-0.4,0.3-0.7v-3.2h12.7v4.1H80c0.3,0,0.5-0.1,0.7-0.3
		c0.2-0.2,0.3-0.4,0.3-0.7v-5.7h-2.7V4.4h-11c-0.1,1.9-0.1,3.5-0.3,4.9C67,10.7,66.9,12,66.7,13c-0.2,1.1-0.3,2-0.5,2.7
		c-0.2,0.7-0.4,1.3-0.6,1.8c-0.2,0.5-0.4,0.9-0.6,1.1c-0.2,0.3-0.4,0.5-0.7,0.6h-1.9v6.6h1.9C64.6,25.8,64.9,25.8,65.1,25.6z
		 M68.7,17.4c0.3-0.7,0.5-1.6,0.7-2.6s0.4-2.2,0.6-3.5c0.2-1.3,0.3-2.8,0.4-4.5h4.7v12.4h-7.3C68.1,18.7,68.4,18.1,68.7,17.4z"/>
	<path id="XMLID_58_" class="st1" d="M144.7,34.4h-3.1c-0.2,0-0.3,0-0.4,0.1c-0.1,0.1-0.2,0.2-0.3,0.3l-3.6,5.7
		c-0.1,0.1-0.1,0.2-0.2,0.3c0,0.1-0.1,0.2-0.1,0.3l-3.9-6.4c-0.1-0.1-0.2-0.2-0.3-0.3c-0.1-0.1-0.3-0.1-0.5-0.1h-3.2l5.5,8.4
		l-5.8,8.9h3c0.2,0,0.4-0.1,0.5-0.2c0.1-0.1,0.2-0.2,0.3-0.4l3.9-6.1c0.1-0.2,0.2-0.3,0.2-0.5l4,6.6c0.1,0.1,0.2,0.3,0.3,0.4
		c0.1,0.1,0.3,0.2,0.5,0.2h3.2l-5.7-9.1L144.7,34.4z"/>
	<path id="XMLID_61_" class="st1" d="M85.2,19.4c0.8,0.8,1.7,1.4,2.8,1.9c1.1,0.4,2.3,0.7,3.6,0.7c1.3,0,2.5-0.2,3.6-0.7
		c1.1-0.4,2-1.1,2.8-1.9c0.8-0.8,1.4-1.7,1.8-2.8c0.4-1.1,0.6-2.3,0.6-3.5c0-0.8-0.1-1.7-0.3-2.4c-0.2-0.8-0.5-1.5-0.8-2.1
		s-0.8-1.2-1.3-1.8c-0.5-0.5-1.1-1-1.7-1.4C95.5,5,94.8,4.7,94,4.5c-0.8-0.2-1.6-0.3-2.5-0.3c-1.3,0-2.5,0.2-3.6,0.7
		c-1.1,0.4-2,1.1-2.8,1.8c-0.8,0.8-1.4,1.7-1.8,2.8c-0.4,1.1-0.6,2.3-0.6,3.5c0,1.3,0.2,2.5,0.6,3.5C83.8,17.7,84.4,18.6,85.2,19.4z
		 M86.4,10.5c0.3-0.8,0.6-1.4,1.1-1.9C88,8,88.6,7.6,89.3,7.3c0.7-0.3,1.4-0.4,2.3-0.4c0.8,0,1.6,0.1,2.3,0.4
		c0.7,0.3,1.3,0.7,1.7,1.2c0.5,0.5,0.8,1.2,1.1,1.9c0.3,0.8,0.4,1.6,0.4,2.6c0,1-0.1,1.8-0.4,2.6c-0.3,0.8-0.6,1.4-1.1,1.9
		c-0.5,0.5-1,0.9-1.7,1.2c-0.7,0.3-1.4,0.4-2.3,0.4c-0.8,0-1.6-0.1-2.3-0.4c-0.7-0.3-1.2-0.7-1.7-1.2c-0.5-0.5-0.8-1.2-1.1-1.9
		c-0.3-0.8-0.4-1.6-0.4-2.6C86.1,12.1,86.2,11.2,86.4,10.5z"/>
	<path id="XMLID_62_" class="st1" d="M224.6,4.4c-0.2,0-0.3,0-0.5,0.1c-0.1,0.1-0.3,0.1-0.4,0.2c-0.1,0.1-0.2,0.2-0.3,0.3
		c-0.1,0.1-0.2,0.2-0.3,0.4l-6.6,10.3c-0.2,0.3-0.4,0.6-0.6,1c-0.2,0.4-0.4,0.8-0.5,1.2c0.1-0.5,0.1-1,0.1-1.4c0-0.5,0-0.9,0-1.3
		V4.4h-3.2v17.4h2.4c0.2,0,0.3,0,0.4-0.1c0.1-0.1,0.3-0.1,0.4-0.2c0.1-0.1,0.2-0.2,0.3-0.3c0.1-0.1,0.2-0.2,0.3-0.4l6.6-10.3
		c0.2-0.3,0.4-0.6,0.5-1c0.2-0.4,0.4-0.8,0.5-1.2c-0.1,0.5-0.1,1-0.1,1.4c0,0.4,0,0.9,0,1.3v10.9h3.2V4.4H224.6z"/>
	<path id="XMLID_63_" class="st1" d="M158.8,47.6c-0.1,0-0.2,0-0.3,0.1c-0.1,0-0.2,0.1-0.3,0.2c-0.3,0.2-0.5,0.4-0.8,0.6
		c-0.3,0.2-0.5,0.3-0.9,0.4c-0.3,0.1-0.6,0.2-1,0.2c-0.4,0-0.7,0.1-1.2,0.1c-0.7,0-1.4-0.1-2.1-0.4c-0.6-0.3-1.2-0.7-1.7-1.2
		s-0.8-1.2-1.1-1.9c-0.3-0.8-0.4-1.6-0.4-2.6c0-1,0.1-1.8,0.4-2.6c0.3-0.8,0.6-1.4,1.1-1.9c0.5-0.5,1-0.9,1.7-1.2
		c0.6-0.3,1.4-0.4,2.1-0.4c0.5,0,0.9,0,1.2,0.1c0.4,0.1,0.7,0.1,0.9,0.3c0.3,0.1,0.5,0.2,0.7,0.3s0.4,0.2,0.5,0.3
		c0.2,0.1,0.3,0.2,0.4,0.3c0.1,0.1,0.3,0.1,0.4,0.1c0.2,0,0.3,0,0.4-0.1c0.1-0.1,0.2-0.2,0.3-0.3l1.1-1.5c-0.7-0.7-1.5-1.2-2.5-1.6
		c-1-0.4-2.1-0.6-3.4-0.6c-1.3,0-2.4,0.2-3.5,0.7c-1,0.4-2,1-2.7,1.8c-0.8,0.8-1.3,1.7-1.8,2.8c-0.4,1.1-0.6,2.3-0.6,3.6
		c0,1.3,0.2,2.5,0.6,3.6c0.4,1.1,1,2,1.7,2.8c0.7,0.8,1.6,1.4,2.6,1.8c1,0.4,2.2,0.7,3.5,0.7c1.4,0,2.7-0.2,3.7-0.7
		c1-0.5,1.9-1.1,2.6-2l-1.3-1.4C159.2,47.7,159,47.6,158.8,47.6z"/>
	<path id="XMLID_66_" class="st1" d="M118.1,34.4l-6.8,17.4h2.5c0.3,0,0.5-0.1,0.7-0.2c0.2-0.2,0.3-0.3,0.4-0.5l1.3-3.5h7.2l1.3,3.5
		c0.1,0.2,0.2,0.4,0.4,0.5c0.2,0.1,0.4,0.2,0.7,0.2h2.5l-6.8-17.4H118.1z M117,45.2l2.1-5.7c0.1-0.3,0.2-0.6,0.3-0.9
		c0.1-0.4,0.2-0.7,0.3-1.1c0.1,0.4,0.2,0.8,0.3,1.1c0.1,0.3,0.2,0.6,0.3,0.9l2.1,5.8H117z"/>
	<path id="XMLID_67_" class="st1" d="M109.2,44.1c-0.2-0.3-0.5-0.6-0.9-0.9c-0.3-0.3-0.7-0.5-1.1-0.7c0.7-0.4,1.3-0.9,1.7-1.6
		s0.6-1.4,0.6-2.2c0-0.7-0.1-1.3-0.4-1.8c-0.3-0.6-0.7-1-1.2-1.4c-0.5-0.4-1.2-0.7-1.9-0.9c-0.8-0.2-1.6-0.3-2.5-0.3
		c-1.1,0-2.2,0.2-3.1,0.5c-0.9,0.3-1.7,0.8-2.4,1.3l0.8,1.5c0.1,0.2,0.2,0.3,0.3,0.4s0.2,0.1,0.4,0.1c0.2,0,0.4-0.1,0.6-0.2
		c0.2-0.1,0.5-0.3,0.8-0.4c0.3-0.2,0.7-0.3,1.1-0.4c0.4-0.1,0.9-0.2,1.5-0.2c1,0,1.8,0.2,2.3,0.6c0.5,0.4,0.8,0.9,0.8,1.6
		c0,0.8-0.3,1.3-0.9,1.7c-0.6,0.4-1.3,0.6-2.3,0.6h-2.2l0,2.6h2.4c0.5,0,1,0.1,1.4,0.2c0.4,0.1,0.8,0.3,1.1,0.5s0.5,0.5,0.7,0.8
		c0.2,0.3,0.2,0.7,0.2,1.1c0,1-0.3,1.7-0.9,2.1s-1.4,0.7-2.5,0.7c-0.7,0-1.3-0.1-1.8-0.2c-0.5-0.2-0.9-0.4-1.2-0.6s-0.7-0.4-0.9-0.5
		c-0.2-0.2-0.5-0.3-0.7-0.3c-0.2,0-0.3,0-0.4,0.1c-0.1,0.1-0.2,0.2-0.3,0.3l-0.9,1.5c0.4,0.3,0.8,0.7,1.2,0.9c0.5,0.3,1,0.5,1.5,0.7
		c0.5,0.2,1.1,0.4,1.7,0.5c0.6,0.1,1.2,0.2,1.8,0.2c1,0,2-0.1,2.8-0.4c0.8-0.3,1.5-0.7,2-1.2c0.6-0.5,1-1.1,1.3-1.8
		c0.3-0.7,0.4-1.4,0.4-2.2c0-0.4-0.1-0.8-0.2-1.2C109.6,44.8,109.4,44.4,109.2,44.1z"/>
	<path id="XMLID_70_" class="st1" d="M86.3,34.4l-6.8,17.4H82c0.3,0,0.5-0.1,0.7-0.2c0.2-0.2,0.3-0.3,0.4-0.5l1.3-3.5h7.2l1.3,3.5
		c0.1,0.2,0.2,0.4,0.4,0.5c0.2,0.1,0.4,0.2,0.7,0.2h2.5l-6.8-17.4H86.3z M85.2,45.2l2.1-5.7c0.1-0.3,0.2-0.6,0.3-0.9
		c0.1-0.4,0.2-0.7,0.3-1.1c0.1,0.4,0.2,0.8,0.3,1.1c0.1,0.3,0.2,0.6,0.3,0.9l2.1,5.8H85.2z"/>
	<path id="XMLID_71_" class="st1" d="M117.6,19.2l-1.3-1.4c-0.1-0.1-0.3-0.2-0.5-0.2c-0.1,0-0.2,0-0.3,0.1c-0.1,0-0.2,0.1-0.3,0.2
		c-0.3,0.2-0.5,0.4-0.8,0.6c-0.3,0.2-0.5,0.3-0.9,0.4c-0.3,0.1-0.6,0.2-1,0.2c-0.4,0-0.7,0.1-1.2,0.1c-0.7,0-1.4-0.1-2.1-0.4
		c-0.6-0.3-1.2-0.7-1.7-1.2c-0.5-0.5-0.8-1.2-1.1-1.9c-0.3-0.8-0.4-1.6-0.4-2.6c0-1,0.1-1.8,0.4-2.6c0.3-0.8,0.6-1.4,1.1-1.9
		c0.5-0.5,1-0.9,1.7-1.2c0.6-0.3,1.4-0.4,2.1-0.4c0.5,0,0.9,0,1.2,0.1c0.4,0.1,0.7,0.1,0.9,0.3c0.3,0.1,0.5,0.2,0.7,0.3
		s0.4,0.2,0.5,0.3c0.2,0.1,0.3,0.2,0.4,0.3c0.1,0.1,0.3,0.1,0.4,0.1c0.2,0,0.3,0,0.4-0.1c0.1-0.1,0.2-0.2,0.3-0.3l1.1-1.5
		c-0.7-0.7-1.5-1.2-2.5-1.6c-1-0.4-2.1-0.6-3.4-0.6c-1.3,0-2.4,0.2-3.5,0.7c-1,0.4-2,1-2.7,1.8c-0.8,0.8-1.3,1.7-1.8,2.8
		c-0.4,1.1-0.6,2.3-0.6,3.6c0,1.3,0.2,2.5,0.6,3.6c0.4,1.1,1,2,1.7,2.8c0.7,0.8,1.6,1.4,2.6,1.8c1,0.4,2.2,0.7,3.5,0.7
		c1.4,0,2.7-0.2,3.7-0.7C116,20.8,116.8,20.1,117.6,19.2z"/>
	<path id="XMLID_72_" class="st1" d="M73.4,43.2c-0.3-0.3-0.7-0.5-1.2-0.6c0.3-0.1,0.6-0.3,0.9-0.5c0.3-0.2,0.5-0.5,0.7-0.8l4.7-7
		h-2.8c-0.3,0-0.6,0.1-0.8,0.2c-0.2,0.2-0.4,0.4-0.6,0.6l-3.8,5.6c-0.2,0.3-0.4,0.5-0.7,0.6c-0.2,0.1-0.5,0.2-0.9,0.2h-1.6v-7.3
		h-3.2v17.4h3.2v-7.6h1.9c0.2,0,0.4,0,0.5,0c0.2,0,0.3,0.1,0.4,0.1c0.1,0.1,0.2,0.2,0.3,0.3c0.1,0.1,0.2,0.2,0.3,0.4l3.7,5.8
		c0.2,0.3,0.4,0.5,0.6,0.7c0.2,0.2,0.5,0.2,0.8,0.2h2.9l-4.5-7.3C74,43.9,73.7,43.5,73.4,43.2z"/>
	<polygon id="XMLID_73_" class="st1" points="124.1,21.7 127.4,21.7 127.4,7 132.6,7 132.6,4.4 118.9,4.4 118.9,7 124.1,7 	"/>
	<path id="XMLID_76_" class="st1" d="M181.7,34.4l-6.8,17.4h2.5c0.3,0,0.5-0.1,0.7-0.2c0.2-0.2,0.3-0.3,0.4-0.5l1.3-3.5h7.2l1.3,3.5
		c0.1,0.2,0.2,0.4,0.4,0.5c0.2,0.1,0.4,0.2,0.7,0.2h2.5L185,34.4H181.7z M180.5,45.2l2.1-5.7c0.1-0.3,0.2-0.6,0.3-0.9
		c0.1-0.4,0.2-0.7,0.3-1.1c0.1,0.4,0.2,0.8,0.3,1.1c0.1,0.3,0.2,0.6,0.3,0.9l2.1,5.8H180.5z"/>
	<path id="XMLID_77_" class="st1" d="M217,2.7c0.3,0.2,0.8,0.4,1.2,0.5c0.5,0.1,1,0.2,1.6,0.2c0.6,0,1.1-0.1,1.6-0.2
		c0.5-0.1,0.9-0.3,1.2-0.5c0.3-0.2,0.6-0.5,0.8-0.8c0.2-0.3,0.3-0.7,0.3-1.1c0-0.2-0.1-0.4-0.2-0.6c-0.1-0.2-0.2-0.3-0.5-0.3h-1.8
		c0,0.4,0,0.7-0.1,0.9s-0.1,0.4-0.3,0.6c-0.1,0.1-0.3,0.2-0.5,0.3c-0.2,0.1-0.4,0.1-0.7,0.1c-0.3,0-0.6,0-0.8-0.1
		c-0.2-0.1-0.3-0.2-0.5-0.3c-0.1-0.1-0.2-0.3-0.3-0.6c0-0.2-0.1-0.5-0.1-0.9h-1.8c-0.2,0-0.4,0.1-0.5,0.3c-0.1,0.2-0.1,0.4-0.1,0.6
		c0,0.4,0.1,0.8,0.3,1.1S216.6,2.5,217,2.7z"/>
	<polygon id="XMLID_78_" class="st1" points="205.6,41.8 197.5,41.8 197.5,34.4 194.3,34.4 194.3,51.7 197.5,51.7 197.5,44.1 
		205.6,44.1 205.6,51.7 208.9,51.7 208.9,34.4 205.6,34.4 	"/>
	<path id="XMLID_79_" class="st1" d="M139.8,17.9c-0.1,0.3-0.3,0.5-0.5,0.7c-0.2,0.2-0.3,0.3-0.5,0.4c-0.2,0.1-0.4,0.2-0.5,0.2
		c-0.2,0-0.4,0-0.5,0h-0.9v2c0,0.2,0.1,0.4,0.4,0.5c0.3,0.1,0.7,0.2,1.3,0.2c0.4,0,0.8,0,1.2-0.1c0.4-0.1,0.7-0.2,1-0.4
		c0.3-0.2,0.6-0.5,0.9-0.8c0.3-0.3,0.5-0.8,0.8-1.3l7-14.9h-2.7c-0.3,0-0.5,0.1-0.7,0.2c-0.2,0.2-0.3,0.3-0.4,0.5l-2.9,6.4
		c-0.2,0.4-0.3,0.7-0.5,1s-0.3,0.7-0.4,1.1c-0.2-0.7-0.5-1.4-0.9-2.1l-3.4-6.4c-0.1-0.2-0.3-0.4-0.4-0.5c-0.2-0.1-0.4-0.2-0.7-0.2
		h-3l7,12.2L139.8,17.9z"/>
	<rect id="XMLID_80_" x="204.5" y="4.4" class="st1" width="3.2" height="17.4"/>
	<polygon id="XMLID_81_" class="st1" points="173.6,14.1 181.8,14.1 181.8,21.7 185,21.7 185,4.4 181.8,4.4 181.8,11.8 173.6,11.8 
		173.6,4.4 170.4,4.4 170.4,21.7 173.6,21.7 	"/>
	<polygon id="XMLID_82_" class="st1" points="155,6.9 162.6,6.9 162.6,21.7 165.8,21.7 165.8,4.4 151.8,4.4 151.8,21.7 155,21.7 	
		"/>
	<path id="XMLID_85_" class="st1" d="M198.3,21.3c0.8-0.3,1.5-0.6,2-1.1c0.5-0.5,1-1.1,1.2-1.7c0.3-0.7,0.4-1.4,0.4-2.2
		c0-0.7-0.1-1.3-0.4-1.9c-0.2-0.6-0.6-1.1-1.1-1.5c-0.5-0.4-1.2-0.8-2-1c-0.8-0.2-1.8-0.4-2.9-0.4h-2.8V4.4h-3.2v17.4h6
		C196.7,21.7,197.5,21.6,198.3,21.3z M192.8,14.1h2.8c0.6,0,1.1,0.1,1.5,0.2c0.4,0.1,0.7,0.3,1,0.5c0.2,0.2,0.4,0.5,0.5,0.8
		c0.1,0.3,0.2,0.7,0.2,1.1c0,0.4-0.1,0.7-0.2,1c-0.1,0.3-0.3,0.6-0.5,0.8s-0.6,0.4-1,0.6c-0.4,0.1-0.9,0.2-1.5,0.2h-2.8V14.1z"/>
	<polygon id="XMLID_86_" class="st1" points="175.6,34.4 161.9,34.4 161.9,37 167.2,37 167.2,51.7 170.4,51.7 170.4,37 175.6,37 	
		"/>
</g>
</svg>
